<svg width="23" height="23" viewBox="0 0 23 23" fill="none" xmlns="http://www.w3.org/2000/svg">
<path d="M11.2259 22.4516C12.7759 22.4516 14.0324 21.1951 14.0324 19.6452H8.41945C8.41945 21.1951 9.67594 22.4516 11.2259 22.4516Z" fill="#333333"/>
<path d="M11.2259 2.69174L10.1073 2.91766C7.54317 3.4355 5.61303 5.70359 5.61303 8.41935C5.61303 9.30033 5.42448 11.5026 4.96914 13.6705C4.74309 14.7466 4.44066 15.8672 4.03871 16.8387H18.4131C18.0112 15.8671 17.7087 14.7466 17.4827 13.6704C17.0274 11.5026 16.8388 9.30032 16.8388 8.41935C16.8388 5.70358 14.9087 3.43547 12.3446 2.91765L11.2259 2.69174ZM19.953 16.8387C20.2663 17.4665 20.6296 17.9627 21.0485 18.2419H1.40332C1.82222 17.9627 2.18554 17.4665 2.49882 16.8387C3.75965 14.312 4.2098 9.65302 4.2098 8.41935C4.2098 5.02262 6.6236 2.18966 9.82947 1.5422C9.82498 1.49649 9.82267 1.45012 9.82267 1.40323C9.82267 0.628246 10.4509 0 11.2259 0C12.0009 0 12.6291 0.628246 12.6291 1.40323C12.6291 1.45012 12.6268 1.49648 12.6223 1.54219C15.8282 2.18962 18.2421 5.0226 18.2421 8.41935C18.2421 9.65302 18.6922 14.312 19.953 16.8387Z" fill="#333333"/>
</svg>
